<svg width="48" height="45" viewBox="0 0 48 45" fill="none" xmlns="http://www.w3.org/2000/svg">
<g clip-path="url(#clip0_3_98)">
<path d="M23.8406 20.8023C28.1448 20.8023 31.4925 17.3069 31.4925 13.0172C31.4925 8.72741 27.9854 5.39093 23.6812 5.39093C19.377 5.39093 16.0293 8.88629 16.0293 13.0172C16.0293 17.3069 19.5364 20.8023 23.8406 20.8023ZM23.6812 8.56853C23.8406 8.56853 23.8406 8.56853 23.6812 8.56853C26.2318 8.56853 28.3042 10.634 28.3042 13.176C28.3042 15.7181 26.2318 17.6247 23.6812 17.6247C21.1305 17.6247 19.2176 15.5592 19.2176 13.176C19.2176 10.634 21.29 8.56853 23.6812 8.56853V8.56853Z" fill="#0D5C63"/>
<path d="M47.4339 19.8487C44.4051 17.1477 40.4197 15.7178 36.2749 15.8767H34.9996C34.6808 17.1477 34.2025 18.2599 33.5649 19.2132C34.5214 19.0543 35.3184 19.0543 36.2749 19.0543C39.3038 18.8954 42.3327 19.8487 44.7239 21.5964V33.0357H47.9122V20.3253L47.4339 19.8487Z" fill="#0D5C63"/>
<path d="M32.6084 5.70814C33.4054 3.80158 35.6373 2.8483 37.7096 3.6427C39.6226 4.4371 40.5791 6.66141 39.782 8.72685C39.1444 10.1568 37.7096 11.1101 36.2749 11.1101C35.9561 11.1101 35.4778 11.1101 35.159 10.9512C35.3184 11.7456 35.3184 12.54 35.3184 13.1755V14.1288C35.6373 14.1288 35.9561 14.2876 36.2749 14.2876C40.2603 14.2876 43.4486 11.1101 43.4486 7.29693C43.4486 3.32494 40.2603 0.147339 36.4343 0.147339C33.8837 0.147339 31.6519 1.41838 30.3766 3.6427C31.1736 4.11934 31.9707 4.75486 32.6084 5.70814V5.70814Z" fill="#0D5C63"/>
<path d="M14.4352 19.3722C13.7975 18.4189 13.3193 17.3068 13.0004 16.0357H11.7251C7.58033 15.8768 3.59496 17.3068 0.566088 19.8488L0.0878448 20.3255V33.0359H3.27614V21.5965C5.82677 19.8488 8.69623 18.8956 11.7251 19.0544C12.6816 19.0544 13.6381 19.2133 14.4352 19.3722Z" fill="#0D5C63"/>
<path d="M11.7251 14.1294C12.0439 14.1294 12.3628 14.1294 12.6816 13.9705V13.0172C12.6816 12.2228 12.6816 11.4284 12.841 10.7929C12.5222 10.9518 12.0439 10.9518 11.7251 10.9518C9.65272 10.9518 7.89916 9.20412 7.89916 7.13868C7.89916 5.07324 9.65272 3.32556 11.7251 3.32556C13.3193 3.32556 14.754 4.27884 15.3916 5.70876C16.0293 4.91436 16.9858 4.11996 17.7829 3.48444C15.7105 0.147963 11.4063 -0.964197 8.05857 1.10124C4.71087 3.16668 3.59497 7.45644 5.66736 10.7929C6.94267 12.8584 9.17447 14.1294 11.7251 14.1294V14.1294Z" fill="#0D5C63"/>
<path d="M36.9126 29.3816L36.5938 28.905C33.4055 25.4096 28.9419 23.3442 24.1594 23.5031C19.377 23.3442 14.754 25.4096 11.5657 28.905L11.2469 29.3816V41.4565C11.2469 42.8864 12.3628 44.1574 13.9569 44.1574H34.362C35.7967 44.1574 37.072 42.8864 37.072 41.4565V29.3816H36.9126ZM33.7243 40.9798H14.4351V30.4938C16.9858 27.9517 20.4929 26.6807 24.1594 26.6807C27.6666 26.5218 31.1737 27.9517 33.7243 30.4938V40.9798Z" fill="#0D5C63"/>
</g>
<defs>
<clipPath id="clip0_3_98">
<rect width="48" height="44.2105" fill="white"/>
</clipPath>
</defs>
</svg>
