<svg width="48" height="28" viewBox="0 0 48 28" fill="none" xmlns="http://www.w3.org/2000/svg">
<path d="M43.1502 12.2821C42.5747 12.2863 42.0047 12.3961 41.4674 12.6063L35.7271 7.82161C35.8684 7.29999 35.9689 6.75888 35.9689 6.18852C35.9689 2.81022 33.3022 0.0949097 29.9844 0.0949097C26.6667 0.0949097 24 2.81022 24 6.18852C24 7.15375 24.2394 8.05316 24.6272 8.8624L17.6636 17.2423C17.3849 17.1892 17.1022 17.1607 16.8186 17.157C16.3901 17.157 15.9856 17.2301 15.593 17.3374L9.45775 11.0902C9.56547 10.6929 9.63729 10.281 9.63729 9.84468C9.63729 7.144 7.50203 4.9698 4.84972 4.9698C2.19741 4.9698 0.0621567 7.144 0.0621567 9.84468C0.0621567 12.5454 2.19741 14.7196 4.84972 14.7196C5.27821 14.7196 5.68276 14.6464 6.07534 14.5392L12.2106 20.7864C12.0955 21.1913 12.0351 21.6104 12.0311 22.0319C12.0311 24.7326 14.1663 26.9068 16.8186 26.9068C19.4709 26.9068 21.6062 24.7326 21.6062 22.0319C21.6062 21.4542 21.4913 20.9107 21.3118 20.3964L28.2849 12.0067C28.8282 12.1676 29.3908 12.2821 29.9844 12.2821C30.9291 12.2768 31.8589 12.042 32.6966 11.5972L38.4393 16.3819C38.3942 16.6379 38.3686 16.897 38.3627 17.157C38.3627 19.8577 40.4979 22.0319 43.1502 22.0319C45.8026 22.0319 47.9378 19.8577 47.9378 17.157C47.9378 14.4563 45.8026 12.2821 43.1502 12.2821Z" fill="#0D5C63"/>
</svg>
